<svg xmlns="http://www.w3.org/2000/svg" width="241" height="40.203" viewBox="0 0 241 40.203">
  <g id="Grupo_3965" data-name="Grupo 3965" transform="translate(-407.056 -199)">
    <path id="Trazado_64" data-name="Trazado 64" d="M174.145,7.41a3.8,3.8,0,0,1,4.1-3.78,3.372,3.372,0,0,1,3.29,1.87l-1.651.886a1.831,1.831,0,0,0-1.652-1.009A1.879,1.879,0,0,0,176.3,7.41a1.879,1.879,0,0,0,1.927,2.033,1.81,1.81,0,0,0,1.652-1.009l1.651.9a3.405,3.405,0,0,1-3.29,1.856,3.8,3.8,0,0,1-4.1-3.78" transform="translate(390.722 198.66)" fill="#2e3b5b"/>
    <path id="Trazado_65" data-name="Trazado 65" d="M182.79,7.41a4.044,4.044,0,1,1,4.043,3.78,3.781,3.781,0,0,1-4.043-3.78m5.913,0a1.883,1.883,0,1,0-3.754,0,1.883,1.883,0,1,0,3.754,0" transform="translate(389.911 198.66)" fill="#2e3b5b"/>
    <path id="Trazado_66" data-name="Trazado 66" d="M197.669,3.63V5.6c-.179-.015-.314-.028-.478-.028a1.8,1.8,0,0,0-1.954,2.046v3.467h-2.13V3.74h2.034v.968a2.967,2.967,0,0,1,2.527-1.077" transform="translate(388.944 198.66)" fill="#2e3b5b"/>
    <path id="Trazado_67" data-name="Trazado 67" d="M207.389,7.41a3.566,3.566,0,0,1-3.658,3.78,2.856,2.856,0,0,1-2.213-.886v3.424h-2.13V3.74h2.035v.845a2.854,2.854,0,0,1,2.308-.954,3.566,3.566,0,0,1,3.658,3.78m-2.157,0a1.878,1.878,0,1,0-3.743,0,1.878,1.878,0,1,0,3.743,0" transform="translate(388.355 198.66)" fill="#2e3b5b"/>
    <path id="Trazado_68" data-name="Trazado 68" d="M209.025,7.41a4.044,4.044,0,1,1,4.043,3.78,3.781,3.781,0,0,1-4.043-3.78m5.913,0a1.883,1.883,0,1,0-3.754,0,1.883,1.883,0,1,0,3.754,0" transform="translate(387.451 198.66)" fill="#2e3b5b"/>
    <path id="Trazado_69" data-name="Trazado 69" d="M223.9,3.63V5.6c-.179-.015-.314-.028-.478-.028a1.8,1.8,0,0,0-1.954,2.046v3.467h-2.13V3.74h2.034v.968A2.967,2.967,0,0,1,223.9,3.63" transform="translate(386.483 198.66)" fill="#2e3b5b"/>
    <path id="Trazado_70" data-name="Trazado 70" d="M232.029,6.892v4.189h-1.994v-.914a2.409,2.409,0,0,1-2.238,1.024c-1.721,0-2.746-.956-2.746-2.225,0-1.3.915-2.2,3.155-2.2H229.9c0-.915-.546-1.447-1.693-1.447A3.532,3.532,0,0,0,226.09,6l-.765-1.487a5.646,5.646,0,0,1,3.168-.886c2.239,0,3.536,1.036,3.536,3.261m-2.13,1.87V8.011h-1.462c-1,0-1.311.368-1.311.861,0,.531.452.886,1.2.886a1.57,1.57,0,0,0,1.57-1" transform="translate(385.948 198.66)" fill="#2e3b5b"/>
    <path id="Trazado_71" data-name="Trazado 71" d="M234.208,7.41a3.8,3.8,0,0,1,4.1-3.78,3.372,3.372,0,0,1,3.29,1.87l-1.652.886a1.829,1.829,0,0,0-1.651-1.009,1.878,1.878,0,0,0-1.926,2.033,1.879,1.879,0,0,0,1.926,2.033,1.807,1.807,0,0,0,1.651-1.009l1.652.9a3.4,3.4,0,0,1-3.29,1.856,3.8,3.8,0,0,1-4.1-3.78" transform="translate(385.089 198.66)" fill="#2e3b5b"/>
    <path id="Trazado_72" data-name="Trazado 72" d="M243.274,1.188A1.218,1.218,0,0,1,244.6,0a1.2,1.2,0,0,1,1.324,1.146,1.331,1.331,0,0,1-2.65.042m.26,2.211h2.13V10.74h-2.13Z" transform="translate(384.238 199)" fill="#2e3b5b"/>
    <path id="Trazado_73" data-name="Trazado 73" d="M247.34,7.12a4.044,4.044,0,1,1,4.042,3.78,3.78,3.78,0,0,1-4.042-3.78m5.912,0a1.884,1.884,0,1,0-3.755,0,1.884,1.884,0,1,0,3.755,0m-1.3-6.578h2.294l-2.472,1.965h-1.666Z" transform="translate(383.857 198.949)" fill="#2e3b5b"/>
    <path id="Trazado_74" data-name="Trazado 74" d="M265.167,6.878v4.2h-2.129V7.2c0-1.187-.546-1.734-1.49-1.734-1.023,0-1.761.629-1.761,1.98v3.629h-2.13V3.74h2.034V4.6a3.218,3.218,0,0,1,2.431-.969c1.733,0,3.044,1.01,3.044,3.248" transform="translate(382.889 198.66)" fill="#2e3b5b"/>
    <path id="Trazado_75" data-name="Trazado 75" d="M186.557,23.653v4.2h-2.13V23.98c0-1.187-.531-1.734-1.392-1.734-.956,0-1.625.615-1.625,1.926v3.684h-2.13V23.98c0-1.187-.5-1.734-1.392-1.734-.943,0-1.612.615-1.612,1.926v3.684h-2.13V20.513h2.034v.847a2.973,2.973,0,0,1,2.307-.956,2.745,2.745,0,0,1,2.418,1.2,3.307,3.307,0,0,1,2.649-1.2c1.748,0,3,1.01,3,3.249" transform="translate(390.722 197.086)" fill="#2e3b5b"/>
    <path id="Trazado_76" data-name="Trazado 76" d="M196.983,24.786h-5.559a1.96,1.96,0,0,0,2.1,1.473,2.486,2.486,0,0,0,1.842-.71l1.134,1.227a3.842,3.842,0,0,1-3.03,1.188c-2.541,0-4.193-1.6-4.193-3.78A3.741,3.741,0,0,1,193.2,20.4a3.637,3.637,0,0,1,3.823,3.809c0,.163-.028.4-.041.574M191.4,23.544h3.618a1.835,1.835,0,0,0-3.618,0" transform="translate(389.303 197.086)" fill="#2e3b5b"/>
    <path id="Trazado_77" data-name="Trazado 77" d="M203.884,27.344a3.043,3.043,0,0,1-1.734.465,2.421,2.421,0,0,1-2.744-2.633V22.159h-1.134V20.522h1.134V18.734h2.13v1.788h1.83v1.638h-1.83v2.988a.856.856,0,0,0,.916.969,1.44,1.44,0,0,0,.859-.273Z" transform="translate(388.459 197.243)" fill="#2e3b5b"/>
    <path id="Trazado_78" data-name="Trazado 78" d="M212.087,23.666v4.19h-1.992v-.914a2.417,2.417,0,0,1-2.241,1.023c-1.72,0-2.745-.954-2.745-2.225,0-1.3.915-2.2,3.155-2.2h1.693c0-.915-.546-1.445-1.693-1.445a3.526,3.526,0,0,0-2.117.681l-.765-1.488a5.654,5.654,0,0,1,3.168-.887c2.239,0,3.536,1.039,3.536,3.261m-2.13,1.87v-.749H208.5c-1,0-1.31.369-1.31.858,0,.533.45.888,1.2.888a1.57,1.57,0,0,0,1.57-1" transform="translate(387.818 197.086)" fill="#2e3b5b"/>
    <rect id="Rectángulo_10" data-name="Rectángulo 10" width="2.13" height="10.125" transform="translate(601.69 214.817)" fill="#2e3b5b"/>
    <path id="Trazado_79" data-name="Trazado 79" d="M174.145,38.071a3.8,3.8,0,0,1,4.1-3.781,3.373,3.373,0,0,1,3.29,1.87l-1.651.886a1.833,1.833,0,0,0-1.652-1.01,2.036,2.036,0,0,0,0,4.067,1.8,1.8,0,0,0,1.652-1.01l1.651.9a3.408,3.408,0,0,1-3.29,1.856,3.8,3.8,0,0,1-4.1-3.78" transform="translate(390.722 195.784)" fill="#2e3b5b"/>
    <path id="Trazado_80" data-name="Trazado 80" d="M190.491,38.671h-5.558a1.959,1.959,0,0,0,2.1,1.473,2.49,2.49,0,0,0,1.844-.71l1.133,1.227a3.844,3.844,0,0,1-3.031,1.188c-2.54,0-4.192-1.6-4.192-3.78a3.741,3.741,0,0,1,3.919-3.782,3.637,3.637,0,0,1,3.823,3.809c0,.163-.028.4-.042.574m-5.584-1.242h3.618a1.835,1.835,0,0,0-3.618,0" transform="translate(389.911 195.784)" fill="#2e3b5b"/>
    <path id="Trazado_81" data-name="Trazado 81" d="M200.257,37.539v4.2h-2.131V37.866c0-1.187-.546-1.734-1.488-1.734-1.025,0-1.762.629-1.762,1.979v3.63h-2.13V34.4h2.034v.861a3.219,3.219,0,0,1,2.431-.97c1.734,0,3.045,1.01,3.045,3.249" transform="translate(388.978 195.784)" fill="#2e3b5b"/>
    <path id="Trazado_82" data-name="Trazado 82" d="M207.649,41.229a3.043,3.043,0,0,1-1.734.465,2.421,2.421,0,0,1-2.744-2.633V36.044h-1.135V34.407h1.135V32.619h2.13v1.788h1.829v1.638H205.3v2.988a.856.856,0,0,0,.914.969,1.439,1.439,0,0,0,.86-.273Z" transform="translate(388.106 195.941)" fill="#2e3b5b"/>
    <path id="Trazado_83" data-name="Trazado 83" d="M216.244,38.671h-5.558a1.959,1.959,0,0,0,2.1,1.473,2.49,2.49,0,0,0,1.844-.71l1.133,1.227a3.844,3.844,0,0,1-3.031,1.188c-2.54,0-4.192-1.6-4.192-3.78a3.741,3.741,0,0,1,3.919-3.782,3.637,3.637,0,0,1,3.823,3.809c0,.163-.028.4-.042.574m-5.584-1.242h3.618a1.835,1.835,0,0,0-3.618,0" transform="translate(387.496 195.784)" fill="#2e3b5b"/>
    <path id="Trazado_84" data-name="Trazado 84" d="M223.061,34.29v1.965c-.179-.013-.314-.026-.479-.026a1.8,1.8,0,0,0-1.953,2.048v3.465H218.5V34.4h2.034v.97a2.97,2.97,0,0,1,2.528-1.078" transform="translate(386.562 195.784)" fill="#2e3b5b"/>
    <path id="Trazado_85" data-name="Trazado 85" d="M141.21,26.3a10.392,10.392,0,1,1,0-10.514l7.87-4.227a19.323,19.323,0,1,0,0,18.968Z" transform="translate(396.465 198.839)" fill="#2e3b5b"/>
    <path id="Trazado_86" data-name="Trazado 86" d="M34.576,29.676a17.536,17.536,0,1,1,0-17.271l1.58-.848a19.323,19.323,0,1,0,0,18.968Z" transform="translate(407.056 198.839)" fill="#1079ae"/>
    <path id="Trazado_87" data-name="Trazado 87" d="M31.8,28.356a13.965,13.965,0,1,1,0-13.89l1.573-.845a15.751,15.751,0,1,0,0,15.581Z" transform="translate(406.686 198.469)" fill="#1079ae"/>
    <path id="Trazado_88" data-name="Trazado 88" d="M29.026,27.037a10.392,10.392,0,1,1,0-10.514l1.57-.843a12.179,12.179,0,1,0,0,12.2Z" transform="translate(406.317 198.099)" fill="#1079ae"/>
    <path id="Trazado_89" data-name="Trazado 89" d="M90.423,1.718a17.013,17.013,0,0,0-13.111,6.25A11.94,11.94,0,0,0,66.52,1.718,15.516,15.516,0,0,0,55.007,6.671V2.279H43.976V40.364H55.008V18.246a6.9,6.9,0,0,1,6.9-6.9,5.967,5.967,0,0,1,5.967,5.967V40.364H78.91V18.246a6.9,6.9,0,0,1,6.9-6.9,5.967,5.967,0,0,1,5.967,5.967V40.364h11.032V14.142A12.244,12.244,0,0,0,90.423,1.718" transform="translate(402.931 198.839)" fill="#2e3b5b"/>
  </g>
</svg>
