<?xml version="1.0" encoding="UTF-8"?>
<svg id="Capa_2" data-name="Capa 2" xmlns="http://www.w3.org/2000/svg" viewBox="0 0 241.01 40.22">
  <g id="Capa_1-2" data-name="Capa 1">
    <g id="Grupo_3965" data-name="Grupo 3965">
      <path id="Trazado_64" data-name="Trazado 64" d="m157.82,7.08c0-2.1,1.71-3.8,3.81-3.79.1,0,.19,0,.29.01,1.38-.11,2.68.63,3.29,1.87l-1.65.89c-.31-.62-.95-1.02-1.65-1.01-1.04-.03-1.9.78-1.94,1.82,0,.07,0,.14,0,.21-.09,1.03.68,1.94,1.72,2.03.07,0,.14,0,.21,0,.7.01,1.34-.38,1.65-1.01l1.65.9c-.62,1.23-1.92,1.96-3.29,1.86-2.09.17-3.92-1.4-4.09-3.49,0-.1-.01-.19-.01-.29" style="fill: #fff;"/>
      <path id="Trazado_65" data-name="Trazado 65" d="m165.65,7.08c-.15-2.23,1.54-4.15,3.77-4.3,2.23-.15,4.15,1.54,4.3,3.77.15,2.23-1.54,4.15-3.77,4.3-.09,0-.17,0-.26,0-2.08.14-3.89-1.43-4.03-3.51,0-.09,0-.18,0-.27m5.91,0c.08-1.04-.69-1.94-1.73-2.03-1.04-.08-1.94.69-2.03,1.73,0,.1,0,.2,0,.3-.08,1.04.69,1.94,1.73,2.03,1.04.08,1.94-.69,2.03-1.73,0-.1,0-.2,0-.3" style="fill: #fff;"/>
      <path id="Trazado_66" data-name="Trazado 66" d="m179.56,3.3v1.97c-.18-.01-.31-.03-.48-.03-.99-.1-1.87.63-1.96,1.62-.01.14-.01.29,0,.43v3.47h-2.13V3.41h2.03v.97c.62-.75,1.56-1.15,2.53-1.08" style="fill: #fff;"/>
      <path id="Trazado_67" data-name="Trazado 67" d="m188.69,7.08c.12,1.97-1.38,3.66-3.34,3.77-.1,0-.21,0-.31,0-.83.04-1.64-.28-2.21-.89v3.42h-2.13V3.41h2.04v.85c.58-.66,1.43-1.01,2.31-.95,1.97-.05,3.61,1.5,3.66,3.47,0,.1,0,.21,0,.31m-2.16,0c.09-1.03-.68-1.94-1.72-2.03s-1.94.68-2.03,1.72c0,.1,0,.21,0,.31-.09,1.03.68,1.94,1.72,2.03s1.94-.68,2.03-1.72c0-.1,0-.21,0-.31" style="fill: #fff;"/>
      <path id="Trazado_68" data-name="Trazado 68" d="m189.43,7.08c-.15-2.23,1.54-4.15,3.77-4.3,2.23-.15,4.15,1.54,4.3,3.77.15,2.23-1.54,4.15-3.77,4.3-.09,0-.17,0-.26,0-2.08.14-3.89-1.43-4.03-3.51,0-.09,0-.18,0-.27m5.91,0c.08-1.04-.69-1.94-1.73-2.03-1.04-.08-1.94.69-2.03,1.73,0,.1,0,.2,0,.3-.08,1.04.69,1.94,1.73,2.03,1.04.08,1.94-.69,2.03-1.73,0-.1,0-.2,0-.3" style="fill: #fff;"/>
      <path id="Trazado_69" data-name="Trazado 69" d="m203.33,3.3v1.97c-.18-.01-.31-.03-.48-.03-.99-.1-1.87.63-1.96,1.62-.01.14-.01.29,0,.43v3.47h-2.13V3.41h2.03v.97c.62-.75,1.56-1.15,2.53-1.08" style="fill: #fff;"/>
      <path id="Trazado_70" data-name="Trazado 70" d="m210.93,6.56v4.19h-1.99v-.91c-.5.73-1.36,1.12-2.24,1.02-1.72,0-2.75-.96-2.75-2.22s.91-2.2,3.15-2.2h1.69c0-.91-.55-1.45-1.69-1.45-.76,0-1.5.23-2.12.68l-.76-1.49c.94-.6,2.05-.91,3.17-.89,2.24,0,3.54,1.04,3.54,3.26m-2.13,1.87v-.75h-1.46c-1,0-1.31.37-1.31.86,0,.53.45.89,1.2.89.69.05,1.32-.36,1.57-1" style="fill: #fff;"/>
      <path id="Trazado_71" data-name="Trazado 71" d="m212.25,7.08c0-2.1,1.71-3.8,3.81-3.79.1,0,.19,0,.29.01,1.38-.11,2.68.63,3.29,1.87l-1.65.89c-.31-.62-.95-1.02-1.65-1.01-1.04-.03-1.9.79-1.93,1.82,0,.07,0,.14,0,.21-.09,1.03.68,1.94,1.72,2.03.07,0,.14,0,.21,0,.7.01,1.34-.38,1.65-1.01l1.65.9c-.62,1.23-1.92,1.96-3.29,1.86-2.09.17-3.92-1.4-4.09-3.49,0-.1-.01-.19-.01-.29" style="fill: #fff;"/>
      <path id="Trazado_72" data-name="Trazado 72" d="m220.46,1.19c.01-.67.57-1.21,1.24-1.19.03,0,.06,0,.08,0,.66-.07,1.25.41,1.32,1.07,0,.03,0,.05,0,.08-.06.73-.7,1.28-1.43,1.22-.64-.05-1.15-.55-1.22-1.18m.26,2.21h2.13v7.34h-2.13V3.41Z" style="fill: #fff;"/>
      <path id="Trazado_73" data-name="Trazado 73" d="m224.15,7.08c-.15-2.23,1.54-4.15,3.77-4.3,2.23-.15,4.15,1.54,4.3,3.77.15,2.23-1.54,4.15-3.77,4.3-.09,0-.17,0-.26,0-2.08.14-3.89-1.43-4.03-3.51,0-.09,0-.18,0-.27m5.91,0c.09-1.04-.68-1.95-1.72-2.03-1.04-.09-1.95.68-2.03,1.72,0,.1,0,.21,0,.31-.09,1.04.68,1.95,1.72,2.03,1.04.09,1.95-.68,2.03-1.72,0-.1,0-.21,0-.31m-1.3-6.58h2.29l-2.47,1.97h-1.67l1.84-1.97Z" style="fill: #fff;"/>
      <path id="Trazado_74" data-name="Trazado 74" d="m241.01,6.54v4.2h-2.13v-3.88c0-1.19-.55-1.73-1.49-1.73-1.02,0-1.76.63-1.76,1.98v3.63h-2.13V3.41h2.03v.86c.64-.65,1.52-1,2.43-.97,1.73,0,3.04,1.01,3.04,3.25" style="fill: #fff;"/>
      <path id="Trazado_75" data-name="Trazado 75" d="m170.23,21.75v4.2h-2.13v-3.87c0-1.19-.53-1.73-1.39-1.73-.96,0-1.62.61-1.62,1.93v3.68h-2.13v-3.88c0-1.19-.5-1.73-1.39-1.73-.94,0-1.61.61-1.61,1.93v3.68h-2.13v-7.34h2.03v.85c.59-.64,1.43-.99,2.31-.96.96-.05,1.88.4,2.42,1.2.65-.79,1.63-1.23,2.65-1.2,1.75,0,3,1.01,3,3.25" style="fill: #fff;"/>
      <path id="Trazado_76" data-name="Trazado 76" d="m179.24,22.88h-5.56c.24.94,1.13,1.57,2.1,1.47.69.03,1.35-.23,1.84-.71l1.13,1.23c-.78.83-1.89,1.26-3.03,1.19-2.54,0-4.19-1.6-4.19-3.78-.03-2.07,1.63-3.76,3.69-3.79.08,0,.15,0,.23,0,2.01-.11,3.72,1.44,3.82,3.44,0,.12,0,.24,0,.37,0,.16-.03.4-.04.57m-5.58-1.24h3.62c-.17-1-1.12-1.67-2.12-1.5-.77.13-1.37.73-1.5,1.5" style="fill: #fff;"/>
      <path id="Trazado_77" data-name="Trazado 77" d="m185.29,25.59c-.52.33-1.12.49-1.73.47-1.32.18-2.55-.74-2.73-2.06-.03-.19-.03-.38-.01-.57v-3.02h-1.13v-1.64h1.13v-1.79h2.13v1.79h1.83v1.64h-1.83v2.99c-.06.47.26.9.73.96.06,0,.12.01.18,0,.31,0,.61-.09.86-.27l.57,1.5Z" style="fill: #fff;"/>
      <path id="Trazado_78" data-name="Trazado 78" d="m192.85,21.76v4.19h-1.99v-.91c-.5.72-1.36,1.12-2.24,1.02-1.72,0-2.74-.95-2.74-2.23s.91-2.2,3.15-2.2h1.69c0-.92-.55-1.44-1.69-1.44-.76,0-1.5.23-2.12.68l-.76-1.49c.94-.6,2.05-.91,3.17-.89,2.24,0,3.54,1.04,3.54,3.26m-2.13,1.87v-.75h-1.46c-1,0-1.31.37-1.31.86,0,.53.45.89,1.2.89.69.05,1.32-.36,1.57-1" style="fill: #fff;"/>
      <rect id="Rectángulo_10" data-name="Rectángulo 10" x="194.64" y="15.82" width="2.13" height="10.12" style="fill: #fff;"/>
      <path id="Trazado_79" data-name="Trazado 79" d="m157.82,34.86c0-2.1,1.71-3.8,3.81-3.79.1,0,.2,0,.29.01,1.38-.11,2.68.63,3.29,1.87l-1.65.89c-.31-.62-.95-1.02-1.65-1.01-1.12.06-1.99,1.01-1.93,2.13.05,1.05.89,1.88,1.93,1.93.7.01,1.34-.38,1.65-1.01l1.65.9c-.62,1.23-1.92,1.96-3.29,1.86-2.09.17-3.92-1.4-4.09-3.49,0-.1-.01-.19-.01-.29" style="fill: #fff;"/>
      <path id="Trazado_80" data-name="Trazado 80" d="m173.35,35.46h-5.56c.24.94,1.13,1.57,2.1,1.47.69.03,1.35-.23,1.84-.71l1.13,1.23c-.78.83-1.89,1.26-3.03,1.19-2.54,0-4.19-1.6-4.19-3.78-.02-2.07,1.63-3.76,3.7-3.79.07,0,.15,0,.22,0,2.01-.11,3.72,1.44,3.82,3.44,0,.12,0,.24,0,.37,0,.16-.03.4-.04.57m-5.58-1.24h3.62c-.17-1-1.12-1.67-2.12-1.5-.77.13-1.37.73-1.5,1.5" style="fill: #fff;"/>
      <path id="Trazado_81" data-name="Trazado 81" d="m182.18,34.33v4.2h-2.13v-3.87c0-1.19-.55-1.73-1.49-1.73-1.02,0-1.76.63-1.76,1.98v3.63h-2.13v-7.34h2.03v.86c.64-.65,1.52-1.01,2.43-.97,1.73,0,3.04,1.01,3.04,3.25" style="fill: #fff;"/>
      <path id="Trazado_82" data-name="Trazado 82" d="m188.7,38.18c-.52.33-1.12.49-1.73.47-1.32.18-2.55-.74-2.73-2.06-.03-.19-.03-.38-.01-.57v-3.02h-1.13v-1.64h1.13v-1.79h2.13v1.79h1.83v1.64h-1.83v2.99c-.06.47.26.9.73.96.06,0,.12,0,.18,0,.31,0,.61-.09.86-.27l.57,1.5Z" style="fill: #fff;"/>
      <path id="Trazado_83" data-name="Trazado 83" d="m196.69,35.46h-5.56c.24.94,1.13,1.57,2.1,1.47.69.03,1.35-.23,1.84-.71l1.13,1.23c-.78.83-1.89,1.26-3.03,1.19-2.54,0-4.19-1.6-4.19-3.78-.02-2.07,1.63-3.76,3.7-3.79.07,0,.15,0,.22,0,2.01-.11,3.72,1.44,3.82,3.44,0,.12,0,.24,0,.37,0,.16-.03.4-.04.57m-5.58-1.24h3.62c-.17-1-1.12-1.67-2.12-1.5-.77.13-1.37.73-1.5,1.5" style="fill: #fff;"/>
      <path id="Trazado_84" data-name="Trazado 84" d="m202.57,31.08v1.97c-.18-.01-.31-.03-.48-.03-.99-.09-1.87.63-1.96,1.62-.01.14-.01.29.01.43v3.47h-2.13v-7.34h2.03v.97c.62-.75,1.56-1.15,2.53-1.08" style="fill: #fff;"/>
      <path id="Trazado_85" data-name="Trazado 85" d="m130.62,26.15c-2.9,4.95-9.27,6.61-14.22,3.71-4.95-2.9-6.61-9.27-3.71-14.22s9.27-6.61,14.22-3.71c1.53.9,2.81,2.17,3.71,3.71l7.87-4.23c-5.24-9.3-17.02-12.59-26.32-7.35-9.3,5.24-12.59,17.02-7.35,26.32,5.24,9.3,17.02,12.59,26.32,7.35,3.08-1.73,5.62-4.28,7.35-7.35l-7.87-4.23Z" style="fill: #fff;"/>
      <path id="Trazado_86" data-name="Trazado 86" d="m34.58,29.52c-4.77,8.43-15.47,11.4-23.9,6.63C2.25,31.38-.71,20.68,4.06,12.25,8.83,3.82,19.53.85,27.96,5.62c2.77,1.57,5.06,3.86,6.63,6.63l1.58-.85C30.92,2.1,19.14-1.19,9.84,4.05.54,9.29-2.75,21.07,2.49,30.37c5.24,9.3,17.02,12.59,26.32,7.35,3.08-1.73,5.62-4.28,7.35-7.35l-1.58-.85Z" style="fill: #fff;"/>
      <path id="Trazado_87" data-name="Trazado 87" d="m31.44,27.83c-3.84,6.69-12.37,9.01-19.06,5.17-6.69-3.84-9.01-12.37-5.17-19.06,3.84-6.69,12.37-9.01,19.06-5.17,2.15,1.23,3.94,3.02,5.17,5.17l1.57-.85c-4.3-7.56-13.92-10.2-21.48-5.9C3.97,11.5,1.33,21.12,5.63,28.68c4.3,7.56,13.92,10.2,21.48,5.9,2.46-1.4,4.5-3.44,5.9-5.9l-1.57-.85Z" style="fill: #fff;"/>
      <path id="Trazado_88" data-name="Trazado 88" d="m28.29,26.14c-2.9,4.95-9.27,6.61-14.22,3.71-4.95-2.9-6.61-9.27-3.71-14.22,2.9-4.95,9.27-6.61,14.22-3.71,1.53.9,2.81,2.17,3.71,3.71l1.57-.84c-3.37-5.82-10.82-7.81-16.64-4.44-5.82,3.37-7.81,10.82-4.44,16.64,3.37,5.82,10.82,7.81,16.64,4.44,1.84-1.07,3.37-2.6,4.44-4.44l-1.57-.84Z" style="fill: #fff;"/>
      <path id="Trazado_89" data-name="Trazado 89" d="m86.3,1.56c-5.08.02-9.89,2.31-13.11,6.25-2.14-3.95-6.31-6.36-10.79-6.25-4.36-.04-8.54,1.76-11.51,4.95V2.12h-11.03v38.08h11.03v-22.12c0-3.81,3.09-6.9,6.9-6.9h0c3.3,0,5.97,2.67,5.97,5.97v23.05h11.04v-22.12c0-3.81,3.09-6.9,6.9-6.9h0c3.3,0,5.97,2.67,5.97,5.97h0v23.05h11.03V13.99c.1-6.76-5.3-12.32-12.06-12.42-.11,0-.22,0-.32,0" style="fill: #fff;"/>
    </g>
  </g>
</svg>